<?xml version="1.0" encoding="UTF-8" standalone="no"?>
<!-- Created with Inkscape (http://www.inkscape.org/) -->

<svg
   version="1.1"
   id="svg1"
   width="378.20001"
   height="466.66666"
   viewBox="0 0 378.20001 466.66666"
   sodipodi:docname="Illinois_logo_fullcolor_®_cmyk.eps"
   xmlns:inkscape="http://www.inkscape.org/namespaces/inkscape"
   xmlns:sodipodi="http://sodipodi.sourceforge.net/DTD/sodipodi-0.dtd"
   xmlns="http://www.w3.org/2000/svg"
   xmlns:svg="http://www.w3.org/2000/svg">
  <defs
     id="defs1" />
  <sodipodi:namedview
     id="namedview1"
     pagecolor="#ffffff"
     bordercolor="#000000"
     borderopacity="0.25"
     inkscape:showpageshadow="2"
     inkscape:pageopacity="0.0"
     inkscape:pagecheckerboard="0"
     inkscape:deskcolor="#d1d1d1">
    <inkscape:page
       x="0"
       y="0"
       inkscape:label="1"
       id="page1"
       width="378.20001"
       height="466.66666"
       margin="0"
       bleed="0" />
  </sodipodi:namedview>
  <g
     id="g1"
     inkscape:groupmode="layer"
     inkscape:label="1">
    <g
       id="group-R5">
      <path
         id="path2"
         d="M 2423.06,2557.69 V 3500 H 0.00390625 V 2557.69 H 538.477 V 942.32 H 0.00390625 V 0 L 2423.06,0 v 942.32 h -538.43 v 1615.37 h 538.43 z M 1884.63,807.691 h 403.84 V 134.629 H 134.59 v 673.062 h 403.887 c 74.281,0 134.586,60.301 134.586,134.629 v 1615.37 c 0,74.37 -60.305,134.63 -134.586,134.63 H 134.59 v 673.05 h 2153.88 v -673.05 h -403.84 c -74.37,0 -134.63,-60.26 -134.63,-134.63 V 942.32 c 0,-74.328 60.26,-134.629 134.63,-134.629 v 0"
         style="fill:#15204b;fill-opacity:1;fill-rule:nonzero;stroke:none"
         transform="matrix(0.13333333,0,0,-0.13333333,0,466.66667)" />
      <path
         id="path3"
         d="m 1884.63,2692.32 h 403.84 v 673.05 H 134.59 v -673.05 h 403.887 c 74.281,0 134.586,-60.26 134.586,-134.63 V 942.32 c 0,-74.328 -60.305,-134.629 -134.586,-134.629 H 134.59 V 134.629 h 2153.88 v 673.062 h -403.84 c -74.37,0 -134.63,60.301 -134.63,134.629 v 1615.37 c 0,74.37 60.26,134.63 134.63,134.63 v 0"
         style="fill:#f1471d;fill-opacity:1;fill-rule:nonzero;stroke:none"
         transform="matrix(0.13333333,0,0,-0.13333333,0,466.66667)" />
      <path
         id="path4"
         d="m 2707.92,115.859 h 12.03 c 14.03,0 25.39,4.68 25.39,16.039 0,10.032 -7.35,16.711 -23.39,16.711 -6.68,0 -11.36,-0.668 -14.03,-1.339 z m -0.66,-62.1481 h -25.39 V 163.309 c 10.01,2 24.05,3.351 42.09,3.351 20.72,0 30.07,-3.351 38.09,-8.031 6.02,-4.68 10.69,-13.359 10.69,-24.047 0,-12.043 -9.35,-21.383 -22.72,-25.391 v -1.351 c 10.69,-4 16.71,-12.0314 20.04,-26.7189 3.35,-16.7109 5.35,-23.3906 8.03,-27.4102 h -27.4 c -3.34,4.0196 -5.35,14.0391 -8.69,26.7305 -2,12.0391 -8.68,17.3867 -22.71,17.3867 h -12.03 z m -67.49,57.4691 c 0,-48.7698 36.08,-87.5316 85.53,-87.5316 48.11,0 83.52,38.7618 83.52,86.8716 0,48.781 -35.41,88.21 -84.19,88.21 -48.78,0 -84.86,-39.429 -84.86,-87.55 z m 197.12,0 c 0,-62.1292 -48.78,-110.918281 -112.26,-110.918281 -62.81,0 -112.93,48.789081 -112.93,110.918281 0,60.808 50.12,109.601 112.93,109.601 63.48,0 112.26,-48.793 112.26,-109.601"
         style="fill:#15204b;fill-opacity:1;fill-rule:nonzero;stroke:none"
         transform="matrix(0.13333333,0,0,-0.13333333,0,466.66667)" />
    </g>
  </g>
</svg>
